<svg xmlns="http://www.w3.org/2000/svg" viewBox="0 0 160 160" width="160" height="160">
  <defs>
    <radialGradient id="sweepGradIcon" cx="80" cy="80" r="62" gradientUnits="userSpaceOnUse">
      <stop offset="0%" stop-color="#00B489" stop-opacity="0.45"/>
      <stop offset="100%" stop-color="#00B489" stop-opacity="0"/>
    </radialGradient>
    <linearGradient id="barGradIcon" x1="0" y1="1" x2="0" y2="0">
      <stop offset="0%" stop-color="#E8901B"/>
      <stop offset="100%" stop-color="#F5A623"/>
    </linearGradient>
  </defs>

  <rect x="0" y="0" width="160" height="160" rx="28" fill="#0B1220"/>

  <circle cx="80" cy="80" r="62" fill="none" stroke="#28394A" stroke-width="1.5"/>
  <circle cx="80" cy="80" r="44" fill="none" stroke="#28394A" stroke-width="1.5"/>
  <circle cx="80" cy="80" r="26" fill="none" stroke="#34495C" stroke-width="1.5"/>

  <line x1="80" y1="14" x2="80" y2="22" stroke="#5C7183" stroke-width="2"/>
  <line x1="80" y1="138" x2="80" y2="146" stroke="#5C7183" stroke-width="2"/>
  <line x1="14" y1="80" x2="22" y2="80" stroke="#5C7183" stroke-width="2"/>
  <line x1="138" y1="80" x2="146" y2="80" stroke="#5C7183" stroke-width="2"/>

  <path d="M80,80 L80,18 A62,62 0 0,1 138,110 Z" fill="url(#sweepGradIcon)"/>
  <line x1="80" y1="80" x2="127" y2="42" stroke="#00D9A3" stroke-width="2" stroke-linecap="round"/>

  <rect x="93" y="82" width="11" height="20" rx="2.5" fill="url(#barGradIcon)"/>
  <rect x="108" y="68" width="11" height="34" rx="2.5" fill="url(#barGradIcon)"/>
  <rect x="123" y="50" width="11" height="52" rx="2.5" fill="url(#barGradIcon)"/>
  <circle cx="128.5" cy="44" r="4.5" fill="#F5A623"/>
  <circle cx="128.5" cy="44" r="9" fill="#F5A623" opacity="0.2"/>

  <circle cx="80" cy="80" r="3" fill="#00D9A3"/>
</svg>
